<mxfile host="app.diagrams.net" agent="Mozilla/5.0 (Windows NT 10.0; Win64; x64) AppleWebKit/537.36 (KHTML, like Gecko) Chrome/128.0.0.0 Safari/537.36" version="24.7.14">
  <diagram name="Trang-1" id="qqUJTTaH5251vNhHzKIq">
    <mxGraphModel dx="1600" dy="674" grid="1" gridSize="10" guides="1" tooltips="1" connect="1" arrows="1" fold="1" page="1" pageScale="1" pageWidth="827" pageHeight="1169" math="0" shadow="0">
      <root>
        <mxCell id="0" />
        <mxCell id="1" parent="0" />
        <mxCell id="NI5zY2pK4PNrdnzDPn-A-46" style="edgeStyle=orthogonalEdgeStyle;rounded=0;orthogonalLoop=1;jettySize=auto;html=1;entryX=0;entryY=0.5;entryDx=0;entryDy=0;" edge="1" parent="1" source="NI5zY2pK4PNrdnzDPn-A-4" target="NI5zY2pK4PNrdnzDPn-A-7">
          <mxGeometry relative="1" as="geometry" />
        </mxCell>
        <mxCell id="NI5zY2pK4PNrdnzDPn-A-4" value="" style="rounded=0;whiteSpace=wrap;html=1;" vertex="1" parent="1">
          <mxGeometry x="40" y="200" width="160" height="240" as="geometry" />
        </mxCell>
        <mxCell id="NI5zY2pK4PNrdnzDPn-A-5" value="" style="rounded=0;whiteSpace=wrap;html=1;" vertex="1" parent="1">
          <mxGeometry x="40" y="140" width="160" height="60" as="geometry" />
        </mxCell>
        <mxCell id="NI5zY2pK4PNrdnzDPn-A-6" value="" style="rounded=0;whiteSpace=wrap;html=1;" vertex="1" parent="1">
          <mxGeometry x="280" y="140" width="160" height="60" as="geometry" />
        </mxCell>
        <mxCell id="NI5zY2pK4PNrdnzDPn-A-61" style="edgeStyle=orthogonalEdgeStyle;rounded=0;orthogonalLoop=1;jettySize=auto;html=1;exitX=0.5;exitY=1;exitDx=0;exitDy=0;entryX=0.5;entryY=0;entryDx=0;entryDy=0;" edge="1" parent="1" source="NI5zY2pK4PNrdnzDPn-A-7" target="NI5zY2pK4PNrdnzDPn-A-8">
          <mxGeometry relative="1" as="geometry">
            <mxPoint x="120" y="560" as="targetPoint" />
            <Array as="points">
              <mxPoint x="360" y="480" />
              <mxPoint x="120" y="480" />
            </Array>
          </mxGeometry>
        </mxCell>
        <mxCell id="NI5zY2pK4PNrdnzDPn-A-7" value="" style="rounded=0;whiteSpace=wrap;html=1;" vertex="1" parent="1">
          <mxGeometry x="280" y="200" width="160" height="240" as="geometry" />
        </mxCell>
        <mxCell id="NI5zY2pK4PNrdnzDPn-A-9" value="" style="rounded=0;whiteSpace=wrap;html=1;" vertex="1" parent="1">
          <mxGeometry x="520" y="140" width="160" height="60" as="geometry" />
        </mxCell>
        <mxCell id="NI5zY2pK4PNrdnzDPn-A-10" value="" style="rounded=0;whiteSpace=wrap;html=1;" vertex="1" parent="1">
          <mxGeometry x="520" y="200" width="160" height="240" as="geometry" />
        </mxCell>
        <mxCell id="NI5zY2pK4PNrdnzDPn-A-14" value="Admin" style="text;html=1;align=center;verticalAlign=middle;whiteSpace=wrap;rounded=0;" vertex="1" parent="1">
          <mxGeometry x="50" y="150" width="140" height="40" as="geometry" />
        </mxCell>
        <mxCell id="NI5zY2pK4PNrdnzDPn-A-15" value="Nhân viên" style="text;html=1;align=center;verticalAlign=middle;whiteSpace=wrap;rounded=0;" vertex="1" parent="1">
          <mxGeometry x="290" y="150" width="140" height="40" as="geometry" />
        </mxCell>
        <mxCell id="NI5zY2pK4PNrdnzDPn-A-16" value="Món ăn" style="text;html=1;align=center;verticalAlign=middle;whiteSpace=wrap;rounded=0;" vertex="1" parent="1">
          <mxGeometry x="530" y="150" width="140" height="40" as="geometry" />
        </mxCell>
        <mxCell id="NI5zY2pK4PNrdnzDPn-A-19" value="AdminID&amp;nbsp;" style="text;html=1;align=center;verticalAlign=middle;whiteSpace=wrap;rounded=0;" vertex="1" parent="1">
          <mxGeometry x="60" y="210" width="130" height="20" as="geometry" />
        </mxCell>
        <mxCell id="NI5zY2pK4PNrdnzDPn-A-20" value="Tên đăng nhập" style="text;html=1;align=center;verticalAlign=middle;whiteSpace=wrap;rounded=0;" vertex="1" parent="1">
          <mxGeometry x="55" y="250" width="130" height="20" as="geometry" />
        </mxCell>
        <mxCell id="NI5zY2pK4PNrdnzDPn-A-21" value="Mật khẩu" style="text;html=1;align=center;verticalAlign=middle;whiteSpace=wrap;rounded=0;" vertex="1" parent="1">
          <mxGeometry x="55" y="280" width="130" height="30" as="geometry" />
        </mxCell>
        <mxCell id="NI5zY2pK4PNrdnzDPn-A-22" value="Tên" style="text;html=1;align=center;verticalAlign=middle;whiteSpace=wrap;rounded=0;" vertex="1" parent="1">
          <mxGeometry x="55" y="320" width="130" height="30" as="geometry" />
        </mxCell>
        <mxCell id="NI5zY2pK4PNrdnzDPn-A-23" value="NhanVienID" style="text;html=1;align=center;verticalAlign=middle;whiteSpace=wrap;rounded=0;" vertex="1" parent="1">
          <mxGeometry x="295" y="210" width="130" height="30" as="geometry" />
        </mxCell>
        <mxCell id="NI5zY2pK4PNrdnzDPn-A-24" value="Tên" style="text;html=1;align=center;verticalAlign=middle;whiteSpace=wrap;rounded=0;" vertex="1" parent="1">
          <mxGeometry x="295" y="250" width="130" height="30" as="geometry" />
        </mxCell>
        <mxCell id="NI5zY2pK4PNrdnzDPn-A-25" value="SĐT" style="text;html=1;align=center;verticalAlign=middle;whiteSpace=wrap;rounded=0;" vertex="1" parent="1">
          <mxGeometry x="295" y="290" width="130" height="30" as="geometry" />
        </mxCell>
        <mxCell id="NI5zY2pK4PNrdnzDPn-A-29" value="DiaChi" style="text;html=1;align=center;verticalAlign=middle;whiteSpace=wrap;rounded=0;" vertex="1" parent="1">
          <mxGeometry x="295" y="330" width="130" height="30" as="geometry" />
        </mxCell>
        <mxCell id="NI5zY2pK4PNrdnzDPn-A-30" value="Role" style="text;html=1;align=center;verticalAlign=middle;whiteSpace=wrap;rounded=0;" vertex="1" parent="1">
          <mxGeometry x="55" y="360" width="130" height="30" as="geometry" />
        </mxCell>
        <mxCell id="NI5zY2pK4PNrdnzDPn-A-31" value="Role" style="text;html=1;align=center;verticalAlign=middle;whiteSpace=wrap;rounded=0;" vertex="1" parent="1">
          <mxGeometry x="295" y="370" width="130" height="30" as="geometry" />
        </mxCell>
        <mxCell id="NI5zY2pK4PNrdnzDPn-A-32" value="MonAnID" style="text;html=1;align=center;verticalAlign=middle;whiteSpace=wrap;rounded=0;" vertex="1" parent="1">
          <mxGeometry x="535" y="210" width="130" height="30" as="geometry" />
        </mxCell>
        <mxCell id="NI5zY2pK4PNrdnzDPn-A-33" value="TenMonAn" style="text;html=1;align=center;verticalAlign=middle;whiteSpace=wrap;rounded=0;" vertex="1" parent="1">
          <mxGeometry x="535" y="245" width="130" height="30" as="geometry" />
        </mxCell>
        <mxCell id="NI5zY2pK4PNrdnzDPn-A-34" value="Gia" style="text;html=1;align=center;verticalAlign=middle;whiteSpace=wrap;rounded=0;" vertex="1" parent="1">
          <mxGeometry x="535" y="290" width="130" height="30" as="geometry" />
        </mxCell>
        <mxCell id="NI5zY2pK4PNrdnzDPn-A-35" value="MoTa" style="text;html=1;align=center;verticalAlign=middle;whiteSpace=wrap;rounded=0;" vertex="1" parent="1">
          <mxGeometry x="535" y="330" width="130" height="30" as="geometry" />
        </mxCell>
        <mxCell id="NI5zY2pK4PNrdnzDPn-A-49" value="" style="group" vertex="1" connectable="0" parent="1">
          <mxGeometry x="280" y="560" width="160" height="320" as="geometry" />
        </mxCell>
        <mxCell id="NI5zY2pK4PNrdnzDPn-A-12" value="" style="rounded=0;whiteSpace=wrap;html=1;" vertex="1" parent="NI5zY2pK4PNrdnzDPn-A-49">
          <mxGeometry width="160" height="60" as="geometry" />
        </mxCell>
        <mxCell id="NI5zY2pK4PNrdnzDPn-A-13" value="" style="rounded=0;whiteSpace=wrap;html=1;" vertex="1" parent="NI5zY2pK4PNrdnzDPn-A-49">
          <mxGeometry y="60" width="160" height="260" as="geometry" />
        </mxCell>
        <mxCell id="NI5zY2pK4PNrdnzDPn-A-18" value="ChiTietDonHang" style="text;html=1;align=center;verticalAlign=middle;whiteSpace=wrap;rounded=0;" vertex="1" parent="NI5zY2pK4PNrdnzDPn-A-49">
          <mxGeometry x="10" y="10" width="140" height="40" as="geometry" />
        </mxCell>
        <mxCell id="NI5zY2pK4PNrdnzDPn-A-42" value="DonHangID" style="text;html=1;align=center;verticalAlign=middle;whiteSpace=wrap;rounded=0;" vertex="1" parent="NI5zY2pK4PNrdnzDPn-A-49">
          <mxGeometry x="20" y="80" width="120" height="25" as="geometry" />
        </mxCell>
        <mxCell id="NI5zY2pK4PNrdnzDPn-A-43" value="MonID" style="text;html=1;align=center;verticalAlign=middle;whiteSpace=wrap;rounded=0;" vertex="1" parent="NI5zY2pK4PNrdnzDPn-A-49">
          <mxGeometry x="20" y="120" width="120" height="25" as="geometry" />
        </mxCell>
        <mxCell id="NI5zY2pK4PNrdnzDPn-A-44" value="SoLuong" style="text;html=1;align=center;verticalAlign=middle;whiteSpace=wrap;rounded=0;" vertex="1" parent="NI5zY2pK4PNrdnzDPn-A-49">
          <mxGeometry x="20" y="160" width="120" height="25" as="geometry" />
        </mxCell>
        <mxCell id="NI5zY2pK4PNrdnzDPn-A-45" value="Gia" style="text;html=1;align=center;verticalAlign=middle;whiteSpace=wrap;rounded=0;" vertex="1" parent="NI5zY2pK4PNrdnzDPn-A-49">
          <mxGeometry x="10" y="200" width="140" height="25" as="geometry" />
        </mxCell>
        <mxCell id="NI5zY2pK4PNrdnzDPn-A-50" value="" style="group" vertex="1" connectable="0" parent="1">
          <mxGeometry x="40" y="570" width="160" height="310" as="geometry" />
        </mxCell>
        <mxCell id="NI5zY2pK4PNrdnzDPn-A-8" value="" style="rounded=0;whiteSpace=wrap;html=1;" vertex="1" parent="NI5zY2pK4PNrdnzDPn-A-50">
          <mxGeometry width="160" height="60" as="geometry" />
        </mxCell>
        <mxCell id="NI5zY2pK4PNrdnzDPn-A-73" style="edgeStyle=orthogonalEdgeStyle;rounded=0;orthogonalLoop=1;jettySize=auto;html=1;" edge="1" parent="NI5zY2pK4PNrdnzDPn-A-50" source="NI5zY2pK4PNrdnzDPn-A-11">
          <mxGeometry relative="1" as="geometry">
            <mxPoint x="230" y="185" as="targetPoint" />
          </mxGeometry>
        </mxCell>
        <mxCell id="NI5zY2pK4PNrdnzDPn-A-75" value="1" style="edgeLabel;html=1;align=center;verticalAlign=middle;resizable=0;points=[];" vertex="1" connectable="0" parent="NI5zY2pK4PNrdnzDPn-A-73">
          <mxGeometry x="0.9384" relative="1" as="geometry">
            <mxPoint x="-53" y="-10" as="offset" />
          </mxGeometry>
        </mxCell>
        <mxCell id="NI5zY2pK4PNrdnzDPn-A-11" value="" style="rounded=0;whiteSpace=wrap;html=1;" vertex="1" parent="NI5zY2pK4PNrdnzDPn-A-50">
          <mxGeometry y="60" width="160" height="250" as="geometry" />
        </mxCell>
        <mxCell id="NI5zY2pK4PNrdnzDPn-A-41" style="edgeStyle=orthogonalEdgeStyle;rounded=0;orthogonalLoop=1;jettySize=auto;html=1;exitX=0;exitY=0;exitDx=0;exitDy=0;" edge="1" parent="NI5zY2pK4PNrdnzDPn-A-50" source="NI5zY2pK4PNrdnzDPn-A-17" target="NI5zY2pK4PNrdnzDPn-A-8">
          <mxGeometry relative="1" as="geometry" />
        </mxCell>
        <mxCell id="NI5zY2pK4PNrdnzDPn-A-17" value="Đơn hàng" style="text;html=1;align=center;verticalAlign=middle;whiteSpace=wrap;rounded=0;" vertex="1" parent="NI5zY2pK4PNrdnzDPn-A-50">
          <mxGeometry x="10" y="30" width="140" as="geometry" />
        </mxCell>
        <mxCell id="NI5zY2pK4PNrdnzDPn-A-36" value="DonHangID" style="text;html=1;align=center;verticalAlign=middle;whiteSpace=wrap;rounded=0;" vertex="1" parent="NI5zY2pK4PNrdnzDPn-A-50">
          <mxGeometry x="20" y="65" width="120" height="25" as="geometry" />
        </mxCell>
        <mxCell id="NI5zY2pK4PNrdnzDPn-A-37" value="NhanVienID" style="text;html=1;align=center;verticalAlign=middle;whiteSpace=wrap;rounded=0;" vertex="1" parent="NI5zY2pK4PNrdnzDPn-A-50">
          <mxGeometry x="20" y="100" width="120" height="25" as="geometry" />
        </mxCell>
        <mxCell id="NI5zY2pK4PNrdnzDPn-A-38" value="NgayDatHang" style="text;html=1;align=center;verticalAlign=middle;whiteSpace=wrap;rounded=0;" vertex="1" parent="NI5zY2pK4PNrdnzDPn-A-50">
          <mxGeometry x="20" y="140" width="120" height="25" as="geometry" />
        </mxCell>
        <mxCell id="NI5zY2pK4PNrdnzDPn-A-39" value="TrangThai" style="text;html=1;align=center;verticalAlign=middle;whiteSpace=wrap;rounded=0;" vertex="1" parent="NI5zY2pK4PNrdnzDPn-A-50">
          <mxGeometry x="20" y="177.5" width="120" height="25" as="geometry" />
        </mxCell>
        <mxCell id="NI5zY2pK4PNrdnzDPn-A-52" value="" style="group" vertex="1" connectable="0" parent="1">
          <mxGeometry x="520" y="560" width="160" height="320" as="geometry" />
        </mxCell>
        <mxCell id="NI5zY2pK4PNrdnzDPn-A-53" value="" style="rounded=0;whiteSpace=wrap;html=1;" vertex="1" parent="NI5zY2pK4PNrdnzDPn-A-52">
          <mxGeometry width="160" height="60" as="geometry" />
        </mxCell>
        <mxCell id="NI5zY2pK4PNrdnzDPn-A-54" value="" style="rounded=0;whiteSpace=wrap;html=1;" vertex="1" parent="NI5zY2pK4PNrdnzDPn-A-52">
          <mxGeometry y="60" width="160" height="260" as="geometry" />
        </mxCell>
        <mxCell id="NI5zY2pK4PNrdnzDPn-A-55" value="Hoá đơn" style="text;html=1;align=center;verticalAlign=middle;whiteSpace=wrap;rounded=0;" vertex="1" parent="NI5zY2pK4PNrdnzDPn-A-52">
          <mxGeometry x="10" y="10" width="140" height="40" as="geometry" />
        </mxCell>
        <mxCell id="NI5zY2pK4PNrdnzDPn-A-56" value="HoaDonID" style="text;html=1;align=center;verticalAlign=middle;whiteSpace=wrap;rounded=0;" vertex="1" parent="NI5zY2pK4PNrdnzDPn-A-52">
          <mxGeometry x="20" y="65" width="120" height="25" as="geometry" />
        </mxCell>
        <mxCell id="NI5zY2pK4PNrdnzDPn-A-57" value="DonHangID" style="text;html=1;align=center;verticalAlign=middle;whiteSpace=wrap;rounded=0;" vertex="1" parent="NI5zY2pK4PNrdnzDPn-A-52">
          <mxGeometry x="20" y="100" width="120" height="25" as="geometry" />
        </mxCell>
        <mxCell id="NI5zY2pK4PNrdnzDPn-A-58" value="TongTien" style="text;html=1;align=center;verticalAlign=middle;whiteSpace=wrap;rounded=0;" vertex="1" parent="NI5zY2pK4PNrdnzDPn-A-52">
          <mxGeometry x="20" y="140" width="120" height="25" as="geometry" />
        </mxCell>
        <mxCell id="NI5zY2pK4PNrdnzDPn-A-59" value="NgayThanhToan" style="text;html=1;align=center;verticalAlign=middle;whiteSpace=wrap;rounded=0;" vertex="1" parent="NI5zY2pK4PNrdnzDPn-A-52">
          <mxGeometry x="20" y="172.5" width="120" height="25" as="geometry" />
        </mxCell>
        <mxCell id="NI5zY2pK4PNrdnzDPn-A-60" value="PhuongThucThanhToan" style="text;html=1;align=center;verticalAlign=middle;whiteSpace=wrap;rounded=0;" vertex="1" parent="NI5zY2pK4PNrdnzDPn-A-52">
          <mxGeometry x="10" y="210" width="140" height="25" as="geometry" />
        </mxCell>
        <mxCell id="NI5zY2pK4PNrdnzDPn-A-62" value="1" style="text;html=1;align=center;verticalAlign=middle;whiteSpace=wrap;rounded=0;" vertex="1" parent="1">
          <mxGeometry x="310" y="450" width="60" height="30" as="geometry" />
        </mxCell>
        <mxCell id="NI5zY2pK4PNrdnzDPn-A-63" value="N" style="text;html=1;align=center;verticalAlign=middle;whiteSpace=wrap;rounded=0;" vertex="1" parent="1">
          <mxGeometry x="70" y="520" width="60" height="20" as="geometry" />
        </mxCell>
        <mxCell id="NI5zY2pK4PNrdnzDPn-A-64" value="1" style="text;html=1;align=center;verticalAlign=middle;whiteSpace=wrap;rounded=0;" vertex="1" parent="1">
          <mxGeometry x="200" y="300" width="30" height="20" as="geometry" />
        </mxCell>
        <mxCell id="NI5zY2pK4PNrdnzDPn-A-66" value="N" style="text;html=1;align=center;verticalAlign=middle;whiteSpace=wrap;rounded=0;" vertex="1" parent="1">
          <mxGeometry x="240" y="300" width="30" height="20" as="geometry" />
        </mxCell>
        <mxCell id="NI5zY2pK4PNrdnzDPn-A-67" style="edgeStyle=orthogonalEdgeStyle;rounded=0;orthogonalLoop=1;jettySize=auto;html=1;entryX=0.46;entryY=1.012;entryDx=0;entryDy=0;entryPerimeter=0;exitX=1;exitY=0;exitDx=0;exitDy=0;" edge="1" parent="1" source="NI5zY2pK4PNrdnzDPn-A-8" target="NI5zY2pK4PNrdnzDPn-A-10">
          <mxGeometry relative="1" as="geometry">
            <Array as="points">
              <mxPoint x="200" y="520" />
              <mxPoint x="594" y="520" />
            </Array>
          </mxGeometry>
        </mxCell>
        <mxCell id="NI5zY2pK4PNrdnzDPn-A-68" value="1" style="text;html=1;align=center;verticalAlign=middle;whiteSpace=wrap;rounded=0;" vertex="1" parent="1">
          <mxGeometry x="200" y="520" width="30" height="20" as="geometry" />
        </mxCell>
        <mxCell id="NI5zY2pK4PNrdnzDPn-A-69" value="N" style="text;html=1;align=center;verticalAlign=middle;whiteSpace=wrap;rounded=0;" vertex="1" parent="1">
          <mxGeometry x="560" y="460" width="30" height="20" as="geometry" />
        </mxCell>
        <mxCell id="NI5zY2pK4PNrdnzDPn-A-71" value="" style="endArrow=classic;html=1;rounded=0;entryX=0.5;entryY=1;entryDx=0;entryDy=0;" edge="1" parent="1" target="NI5zY2pK4PNrdnzDPn-A-54">
          <mxGeometry width="50" height="50" relative="1" as="geometry">
            <mxPoint x="110" y="880" as="sourcePoint" />
            <mxPoint x="680" y="920" as="targetPoint" />
            <Array as="points">
              <mxPoint x="110" y="920" />
              <mxPoint x="600" y="920" />
            </Array>
          </mxGeometry>
        </mxCell>
        <mxCell id="NI5zY2pK4PNrdnzDPn-A-76" value="N" style="text;html=1;align=center;verticalAlign=middle;resizable=0;points=[];autosize=1;strokeColor=none;fillColor=none;" vertex="1" parent="1">
          <mxGeometry x="240" y="730" width="30" height="30" as="geometry" />
        </mxCell>
        <mxCell id="NI5zY2pK4PNrdnzDPn-A-77" value="1" style="text;html=1;align=center;verticalAlign=middle;resizable=0;points=[];autosize=1;strokeColor=none;fillColor=none;" vertex="1" parent="1">
          <mxGeometry x="120" y="880" width="30" height="30" as="geometry" />
        </mxCell>
        <mxCell id="NI5zY2pK4PNrdnzDPn-A-79" value="1" style="text;html=1;align=center;verticalAlign=middle;resizable=0;points=[];autosize=1;strokeColor=none;fillColor=none;" vertex="1" parent="1">
          <mxGeometry x="570" y="880" width="30" height="30" as="geometry" />
        </mxCell>
      </root>
    </mxGraphModel>
  </diagram>
</mxfile>
